ply
format ascii 1.0
comment BOS Simulation Lab local placeholder splat asset for frontend-only viewer proof
element vertex 36
property float x
property float y
property float z
property uchar red
property uchar green
property uchar blue
end_header
-4.40 0.20 -2.30 53 186 210
-4.05 0.35 -2.15 69 202 225
-3.70 0.55 -2.00 80 215 230
-2.50 0.20 -2.25 124 58 237
-2.10 0.48 -2.05 148 88 245
-1.72 0.70 -1.92 167 139 250
0.20 0.35 -2.55 96 165 250
0.45 1.10 -2.35 125 211 252
0.72 1.90 -2.12 186 230 253
-3.90 0.26 0.10 52 211 153
-3.55 0.52 0.25 74 222 174
-3.20 0.76 0.42 110 231 183
-0.75 0.32 -0.12 245 158 11
-0.48 0.88 0.10 251 191 36
-0.18 1.34 0.30 254 215 102
2.75 0.35 -0.98 248 113 113
3.08 0.82 -0.76 252 165 165
3.42 1.18 -0.56 254 202 202
-3.55 0.26 2.02 34 211 238
-3.28 0.60 2.25 103 232 249
-3.02 0.92 2.50 165 243 252
-0.42 0.25 2.02 168 85 247
-0.12 0.58 2.28 196 181 253
0.16 0.86 2.52 221 214 254
2.72 0.28 1.40 148 163 184
3.05 0.72 1.68 203 213 225
3.38 1.04 1.95 226 232 240
-4.85 0.05 -2.90 31 41 55
-2.60 0.05 -2.75 31 41 55
-0.45 0.05 -2.60 31 41 55
1.78 0.05 -1.85 31 41 55
3.85 0.05 -1.20 31 41 55
-4.20 0.05 2.75 31 41 55
-1.15 0.05 2.82 31 41 55
1.35 0.05 2.48 31 41 55
3.72 0.05 2.20 31 41 55
